<svg xmlns="http://www.w3.org/2000/svg" viewBox="0 0 5482.8 1428.6">
  <g fill="#132a3a">
    <path fill="#fff" d="M1415 1336c9-9 14-20 14-32 0-13-5-24-14-33L995 851c63-91 94-194 94-307a530 530 0 00-160-385 542 542 0 00-770 0A530 530 0 000 544a546 546 0 00159 385 525 525 0 00385 160c112 0 214-31 307-95l420 421c9 9 19 14 32 14 14 0 25-5 32-15l80-78M854 234c42 42 73 89 96 142a443 443 0 01-96 478c-42 42-89 73-142 96a442 442 0 01-336 0c-53-23-100-54-142-96a436 436 0 010-620 448 448 0 01310-127 447 447 0 01310 127z"/>
    <path fill="#fff" d="M592 298l-1-1a95 95 0 00-69-28c-26 0-49 10-68 29h-1a95 95 0 00-28 69c0 13 2 25 7 36L332 503c-15-8-32-12-50-12-30 0-55 10-76 31s-32 47-32 77 11 55 32 76 46 31 76 31 56-10 77-31 31-46 31-76c0-19-4-36-12-51l97-96c14 8 30 12 47 12 19 0 37-5 52-14l98 98c-8 16-12 32-12 51 0 29 11 55 32 76s47 31 76 31c30 0 56-10 77-31s31-46 31-76c0-19-4-35-12-50l66-65c-4-25-10-50-19-74l-93 93c-15-8-31-12-50-12-18 0-35 4-50 12L615 399c3-10 5-21 5-32 0-27-9-50-28-69m230 301a53 53 0 01-54 53c-15 0-27-5-38-15a51 51 0 01-16-38c0-15 5-28 16-39 11-10 24-15 38-15 15 0 28 5 38 15 11 11 16 24 16 39M492 336c8-9 18-13 30-13s22 4 31 13 13 19 13 31-4 22-12 31h-1c-8 8-19 12-31 12s-22-4-30-12c-9-9-13-19-13-31s5-22 13-31M244 637a52 52 0 01-16-38c0-16 6-28 16-39 11-10 23-15 38-15a53 53 0 0154 54c0 15-5 27-15 38a54 54 0 01-39 15c-15 0-27-5-38-15z"/>
  </g>
  <path fill="#fff" d="M1839 524c91 0 167 38 214 119l-115 54c-24-21-45-40-97-40-58 0-116 44-116 125s58 123 116 123c52 0 73-17 97-39l117 55a237 237 0 01-216 117c-111 0-260-80-260-256 0-173 149-258 260-258zm599 1c92 0 187 62 187 220v285h-151V756c0-76-26-100-74-100-68 0-107 66-116 95v279h-151V354h151v265c9-24 60-94 154-94zm637 8h151v497h-151v-50c-7 18-52 60-129 60-113 0-244-82-244-260 0-171 131-256 244-256 77 0 122 44 129 55zm-107 374c63 0 113-43 113-127 0-80-50-123-113-123-65 0-120 44-120 123 0 83 55 127 120 127zm597-3c27 0 46-4 67-10v126c-21 9-55 16-106 16-83 0-153-28-153-181V657h-70V533h70V416h151v117h106v124h-106v198c0 22 6 49 41 49zm392-214c-13-35-33-46-55-46-20 0-40 11-40 30 0 18 11 29 33 37l63 22c71 25 143 51 143 151s-101 158-204 158c-93 0-180-55-201-142l119-37c12 27 34 59 82 59 33 0 54-21 54-40 0-10-8-22-32-32l-58-21c-100-36-147-87-147-158 0-92 86-147 181-147 97 0 161 53 190 132zm463 214c27 0 46-4 67-10v126c-21 9-55 16-106 16-83 0-153-28-153-181V657h-70V533h70V416h151v117h106v124h-106v198c0 22 6 49 41 49zm505-371h151v497h-151v-50c-6 18-51 60-128 60-114 0-245-82-245-260 0-171 131-256 245-256 77 0 122 44 128 55zm-106 374c62 0 113-43 113-127 0-80-51-123-113-123-65 0-120 44-120 123 0 83 55 127 120 127zm597-3c27 0 46-4 67-10v126c-21 9-56 16-106 16-84 0-153-28-153-181V657h-70V533h70V416h151v117h106v124h-106v198c0 22 5 49 41 49z"/>
</svg>
