<?xml version="1.0" encoding="UTF-8"?>
<svg width="2623px" height="2329px" viewBox="0 0 2623 2329" version="1.1" xmlns="http://www.w3.org/2000/svg" xmlns:xlink="http://www.w3.org/1999/xlink">
    <!-- Generator: Sketch 55.2 (78181) - https://sketchapp.com -->
    <title>logo-sq</title>
    <desc>Created with Sketch.</desc>
    <g id="Page-1" stroke="none" stroke-width="1" fill="none" fill-rule="evenodd">
        <g id="logo-sq" transform="translate(-1.000000, -10.000000)" fill="#132A3A" fill-rule="nonzero">
            <g id="SvgjsG1282" transform="translate(591.962200, 0.962200)">
                <g id="g12">
                    <g id="g10">
                        <g id="g8">
                            <path d="M1423.79783,1344.79107 C1433.23,1335.57252 1437.83106,1325.00651 1437.60923,1313.04376 C1437.60923,1300.14436 1433.01638,1289.23328 1423.79783,1280.24478 L1003.85257,860.315946 C1066.88708,768.754864 1098.40434,666.266266 1098.40434,552.833719 C1098.40434,480.153413 1084.50257,410.792443 1056.64972,344.76724 C1029.74996,278.495553 990.180848,219.618425 937.958823,168.086559 C886.196905,117.031232 827.516965,77.7086068 761.968301,50.085818 C695.713046,22.725947 626.023428,9.03779525 552.866584,9.03779525 C480.399898,9.03779525 410.710281,22.725947 343.748434,50.1022504 C278.183338,77.7250392 219.651289,117.047665 168.102992,168.119424 C116.587559,219.191183 77.117042,278.084744 49.7407386,344.783673 C22.6109205,410.808875 9.03779525,480.169845 9.03779525,552.866584 C9.03779525,626.023428 22.6109205,695.729478 49.7571709,761.984734 C77.1334744,828.700095 116.587559,887.478629 168.119424,938.303903 L168.119424,937.958823 C219.667722,990.180848 278.19977,1029.74996 343.748434,1056.64972 C410.463796,1084.4697 480.169845,1098.40434 552.866584,1098.40434 C665.132433,1098.40434 767.506005,1066.78849 859.970867,1003.52392 L1280.24478,1423.79783 C1288.7896,1433.01638 1299.33917,1437.60101 1312.02495,1437.60101 C1325.82813,1437.60101 1336.64062,1432.88492 1344.44599,1423.45275 L1423.79783,1344.79107 L1423.79783,1344.79107 Z M863.076582,243.001666 C863.175176,243.133125 863.290202,243.248151 863.421661,243.346745 C904.699737,285.084927 936.430614,332.262218 958.663591,384.796457 L959.00867,385.141536 C980.633649,438.54669 991.429707,494.449562 991.429707,552.850152 C991.429707,611.908035 980.617217,668.254581 959.00867,721.939085 C958.942941,722.086976 958.811482,722.18557 958.663591,722.284164 C936.39775,775.179915 904.535413,822.110721 863.093014,863.093014 L863.093014,863.438093 C821.272671,904.716169 773.881759,936.463479 720.903846,958.680023 L720.558767,959.025103 C667.383666,980.617217 611.480794,991.446139 552.850152,991.446139 C494.449562,991.446139 438.54669,980.666514 385.141536,959.025103 L384.796457,958.680023 C332.245786,936.447047 285.084927,904.699737 243.346745,863.438093 L243.001666,863.093014 C201.740022,822.028559 169.992712,774.506188 147.759736,720.558767 L147.759736,720.903846 C125.707516,667.564422 114.664973,611.562956 114.632108,552.850152 C114.648541,494.400265 125.691083,438.497393 147.759736,385.157969 C169.97628,332.410109 201.707158,285.150656 243.001666,243.346745 C243.10026,243.248151 243.248151,243.133125 243.346745,243.001666 C285.134224,202.183696 332.410109,170.765033 385.157969,148.794975 C438.497393,126.726322 494.400265,115.683779 552.866584,115.667347 C611.562956,115.700212 667.580854,126.742754 720.920279,148.794975 L720.558767,148.794975 C773.717435,170.781466 821.223373,202.167264 863.076582,243.001666 Z" id="path6"></path>
                        </g>
                    </g>
                </g>
                <g id="g20" transform="translate(180.755905, 262.917680)">
                    <g id="g18">
                        <g id="g16">
                            <path d="M420.40537,44.252332 C420.175317,44.0058467 419.945264,43.7922261 419.715211,43.5621731 C400.620815,24.6978296 377.615518,15.2656578 350.69932,15.2656578 C324.013176,15.2656578 301.122905,24.8292884 282.028509,43.9236849 L281.683429,43.9236849 C262.819086,63.0180814 253.370482,86.0233784 253.370482,112.939576 C253.370482,125.970433 255.555985,138.048214 259.926991,149.172919 L160.560541,248.884449 C145.459206,240.849027 128.681772,236.806668 110.17894,236.806668 C80.5185395,236.806668 55.2127128,247.389105 34.2614602,268.553978 C13.0965869,289.488798 2.53058267,314.893219 2.53058267,344.816537 C2.53058267,374.723423 13.0965869,400.275735 34.2614602,421.440609 C55.1962804,442.145376 80.5021071,452.481327 110.17894,452.481327 C140.315879,452.481327 165.851759,442.128944 186.803012,421.440609 L187.148091,421.440609 C208.082911,400.275735 218.550321,374.723423 218.550321,344.816537 C218.550321,326.379435 214.524395,309.585568 206.472541,294.434937 L303.078356,198.174201 C317.308775,206.226055 333.18243,210.251982 350.69932,210.251982 C369.74442,210.251982 386.883366,205.519464 402.116159,196.087292 L500.480236,294.434937 C492.198329,309.651298 488.057376,326.445164 488.057376,344.816537 C488.057376,374.509803 498.853433,400.02925 520.478412,421.424176 C541.413233,442.145376 566.834086,452.481327 596.740972,452.481327 C626.647858,452.481327 652.052279,442.128944 673.003531,421.424176 C693.938352,400.259303 704.405762,374.723423 704.405762,344.816537 C704.405762,326.576623 700.511294,310.029242 692.656628,295.125096 L757.893077,229.905079 C754.130068,204.829305 747.93507,180.328664 739.275219,156.403155 L646.777493,248.868016 C631.774753,240.816163 615.095912,236.790236 596.740972,236.790236 C578.336734,236.790236 561.526435,240.832595 546.375804,248.868016 L442.8684,145.015533 C446.319194,135.09039 448.044591,124.376495 448.044591,112.923144 C448.028159,86.236999 438.82604,63.3467285 420.40537,44.252332 L420.40537,44.252332 Z M650.228287,344.800105 C650.228287,359.753548 645.052096,372.521488 634.699712,383.103924 C624.347328,393.226255 611.694415,398.28742 596.724539,398.28742 C581.754664,398.28742 568.986724,393.111229 558.437152,382.758845 C547.624663,372.176408 542.218418,359.523495 542.218418,344.800105 C542.218418,329.846662 547.624663,317.078722 558.437152,306.496285 C569.249642,295.930281 582.017582,290.622631 596.724539,290.622631 C611.234309,290.622631 623.87079,295.913849 634.699712,306.496285 C645.052096,317.078722 650.228287,329.863094 650.228287,344.800105 L650.228287,344.800105 Z M320.348761,81.8659926 C328.630668,73.3540327 338.752998,69.0816204 350.732185,69.0816204 C362.464887,69.0816204 372.685811,73.3376004 381.427824,81.8659926 L381.772904,82.2110721 C390.054811,90.723032 394.195764,100.960389 394.195764,112.923144 C394.195764,124.885898 390.153405,135.123255 382.117983,143.635215 C381.871498,143.635215 381.657877,143.750242 381.427824,143.980295 C372.915864,152.032148 362.678507,156.074508 350.715753,156.074508 C338.752998,156.074508 328.630668,152.032148 320.332328,143.980295 L319.987249,143.635215 C311.705342,135.123255 307.564389,124.885898 307.564389,112.923144 C307.564389,100.960389 311.820368,90.723032 320.332328,82.2110721 L320.348761,81.8659926 L320.348761,81.8659926 Z M72.581712,383.103924 L72.2366326,382.758845 C61.8842489,372.406461 56.7080571,359.753548 56.7080571,344.800105 C56.7080571,329.616609 61.9828431,316.865101 72.581712,306.496285 C82.9340957,295.930281 95.4719826,290.622631 110.195373,290.622631 C125.148816,290.622631 138.031782,295.913849 148.844272,306.496285 C159.196655,317.078722 164.372847,329.846662 164.372847,344.800105 C164.372847,359.753548 159.196655,372.422894 148.844272,382.758845 L148.844272,383.103924 C138.261835,393.226255 125.378869,398.28742 110.195373,398.28742 C95.4884149,398.28742 82.9340957,393.226255 72.581712,383.103924 Z" id="path14"></path>
                        </g>
                    </g>
                </g>
            </g>
            <g id="SvgjsG1283" transform="translate(0.509909, 1876.036010)">
                <path d="M175.27023,115.008863 C236.314764,115.008863 287.720687,140.711824 319.206815,194.688044 L242.09793,231.314764 C225.391005,217.178135 211.896951,204.326654 176.555378,204.326654 C138.000936,204.326654 98.8039195,233.88506 98.8039195,288.503854 C98.8039195,342.480073 138.000936,370.753331 176.555378,370.753331 C211.896951,370.753331 225.391005,359.186998 242.09793,345.050369 L320.491963,381.677089 C287.720687,435.653309 237.599912,460.071122 175.27023,460.071122 C100.731642,460.071122 0.4900914,406.737477 0.4900914,288.503854 C0.4900914,172.197952 100.731642,115.008863 175.27023,115.008863 Z M577.521579,115.651437 C639.851261,115.651437 703.466091,157.418749 703.466091,263.443466 L703.466091,454.93053 L601.939393,454.93053 L601.939393,270.511781 C601.939393,219.748431 584.589894,203.68408 552.461192,203.68408 C506.838435,203.68408 480.492899,248.021689 474.067159,267.29891 L474.067159,454.93053 L372.540461,454.93053 L372.540461,0.63068372 L474.067159,0.63068372 L474.067159,178.623693 C480.492899,162.559342 514.549323,115.651437 577.521579,115.651437 Z M1005.47589,120.792029 L1107.00259,120.792029 L1107.00259,454.93053 L1005.47589,454.93053 L1005.47589,421.51668 C1000.97787,433.083013 970.776892,461.35627 919.370969,461.35627 C842.904658,461.35627 754.872014,406.737477 754.872014,287.218706 C754.872014,172.197952 842.904658,115.008863 919.370969,115.008863 C970.776892,115.008863 1000.97787,144.567269 1005.47589,151.635583 L1005.47589,120.792029 Z M934.150172,372.038479 C975.917484,372.038479 1009.97391,343.122647 1009.97391,287.218706 C1009.97391,233.242486 975.917484,204.326654 934.150172,204.326654 C890.455137,204.326654 853.185842,233.88506 853.185842,287.218706 C853.185842,342.480073 890.455137,372.038479 934.150172,372.038479 L934.150172,372.038479 Z M1335.11637,370.110757 C1353.10845,370.110757 1365.95993,367.540461 1380.09656,363.685016 L1380.09656,447.862216 C1365.95993,454.287956 1342.82726,458.785974 1308.77084,458.785974 C1252.8669,458.785974 1205.95899,440.151327 1205.95899,337.339481 L1205.95899,204.326654 L1159.05109,204.326654 L1159.05109,120.792029 L1205.95899,120.792029 L1205.95899,42.3979963 L1307.48569,42.3979963 L1307.48569,120.792029 L1378.81141,120.792029 L1378.81141,204.326654 L1307.48569,204.326654 L1307.48569,337.339481 C1307.48569,352.118684 1311.34113,370.110757 1335.11637,370.110757 L1335.11637,370.110757 Z M1598.57173,226.174172 C1589.57569,203.041506 1576.08164,195.330618 1561.30243,195.330618 C1547.80838,195.330618 1534.31432,203.041506 1534.31432,215.892987 C1534.31432,228.101894 1542.02521,235.170208 1556.80442,240.310801 L1599.2143,255.090004 C1646.76478,272.439503 1694.95783,289.789002 1694.95783,356.616702 C1694.95783,424.086976 1627.48756,462.641418 1558.08956,462.641418 C1495.75988,462.641418 1437.28564,426.014698 1423.14902,367.540461 L1502.8282,342.480073 C1511.18166,361.11472 1525.96086,382.319663 1558.08956,382.319663 C1579.93708,382.319663 1594.07371,368.183035 1594.07371,355.331554 C1594.07371,348.905813 1588.93312,340.552351 1572.86877,334.12661 L1533.67175,319.989982 C1466.84405,295.572168 1435.35792,261.515744 1435.35792,213.965265 C1435.35792,151.635583 1493.18959,115.008863 1556.80442,115.008863 C1621.70439,115.008863 1664.75685,150.350435 1684.03408,203.68408 L1598.57173,226.174172 Z M1909.57756,370.110757 C1927.56964,370.110757 1940.42112,367.540461 1954.55775,363.685016 L1954.55775,447.862216 C1940.42112,454.287956 1917.28845,458.785974 1883.23203,458.785974 C1827.32809,458.785974 1780.42018,440.151327 1780.42018,337.339481 L1780.42018,204.326654 L1733.51228,204.326654 L1733.51228,120.792029 L1780.42018,120.792029 L1780.42018,42.3979963 L1881.94688,42.3979963 L1881.94688,120.792029 L1953.2726,120.792029 L1953.2726,204.326654 L1881.94688,204.326654 L1881.94688,337.339481 C1881.94688,352.118684 1885.80232,370.110757 1909.57756,370.110757 L1909.57756,370.110757 Z M2248.85666,120.792029 L2350.38336,120.792029 L2350.38336,454.93053 L2248.85666,454.93053 L2248.85666,421.51668 C2244.35864,433.083013 2214.15766,461.35627 2162.75174,461.35627 C2086.28543,461.35627 1998.25278,406.737477 1998.25278,287.218706 C1998.25278,172.197952 2086.28543,115.008863 2162.75174,115.008863 C2214.15766,115.008863 2244.35864,144.567269 2248.85666,151.635583 L2248.85666,120.792029 Z M2177.53094,372.038479 C2219.29825,372.038479 2253.35468,343.122647 2253.35468,287.218706 C2253.35468,233.242486 2219.29825,204.326654 2177.53094,204.326654 C2133.8359,204.326654 2096.56661,233.88506 2096.56661,287.218706 C2096.56661,342.480073 2133.8359,372.038479 2177.53094,372.038479 Z M2578.49714,370.110757 C2596.48921,370.110757 2609.34069,367.540461 2623.47732,363.685016 L2623.47732,447.862216 C2609.34069,454.287956 2586.20803,458.785974 2552.1516,458.785974 C2496.24766,458.785974 2449.33976,440.151327 2449.33976,337.339481 L2449.33976,204.326654 L2402.43185,204.326654 L2402.43185,120.792029 L2449.33976,120.792029 L2449.33976,42.3979963 L2550.86646,42.3979963 L2550.86646,120.792029 L2622.19217,120.792029 L2622.19217,204.326654 L2550.86646,204.326654 L2550.86646,337.339481 C2550.86646,352.118684 2554.7219,370.110757 2578.49714,370.110757 L2578.49714,370.110757 Z" id="path23"></path>
            </g>
        </g>
    </g>
</svg>