<?xml version="1.0" encoding="UTF-8" standalone="no"?>
<svg
   xmlns:dc="http://purl.org/dc/elements/1.1/"
   xmlns:cc="http://creativecommons.org/ns#"
   xmlns:rdf="http://www.w3.org/1999/02/22-rdf-syntax-ns#"
   xmlns:svg="http://www.w3.org/2000/svg"
   xmlns="http://www.w3.org/2000/svg"
   xmlns:sodipodi="http://sodipodi.sourceforge.net/DTD/sodipodi-0.dtd"
   xmlns:inkscape="http://www.inkscape.org/namespaces/inkscape"
   version="1.1"
   width="2622.9873"
   height="2328.6775"
   viewBox="0 0 2622.9874 2328.6776"
   id="svg28"
   sodipodi:docname="Color logo - no background.svg"
   inkscape:version="1.0.1 (3bc2e813f5, 2020-09-07)">
  <metadata
     id="metadata34">
    <rdf:RDF>
      <cc:Work
         rdf:about="">
        <dc:format>image/svg+xml</dc:format>
        <dc:type
           rdf:resource="http://purl.org/dc/dcmitype/StillImage" />
        <dc:title></dc:title>
      </cc:Work>
    </rdf:RDF>
  </metadata>
  <defs
     id="defs32">
    <defs
       id="SvgjsDefs1280" />
  </defs>
  <sodipodi:namedview
     pagecolor="#ffffff"
     bordercolor="#666666"
     borderopacity="1"
     objecttolerance="10"
     gridtolerance="10"
     guidetolerance="10"
     inkscape:pageopacity="0"
     inkscape:pageshadow="2"
     inkscape:window-width="1920"
     inkscape:window-height="1031"
     id="namedview30"
     showgrid="false"
     inkscape:pagecheckerboard="true"
     fit-margin-top="0"
     fit-margin-left="0"
     fit-margin-right="0"
     fit-margin-bottom="0"
     inkscape:zoom="0.26521277"
     inkscape:cx="1335.9176"
     inkscape:cy="1290.4762"
     inkscape:window-x="0"
     inkscape:window-y="24"
     inkscape:window-maximized="1"
     inkscape:current-layer="svg28" />
  <g
     id="SvgjsG1282"
     featureKey="7KWit6-0"
     transform="matrix(16.432355,0,0,16.432355,492.36807,-107.63193)"
     fill="#132a3a">
    <g
       id="g12">
      <g
         id="g10">
        <g
           id="g8">
          <path
             d="m 92.646,87.838 c 0.574,-0.561 0.854,-1.204 0.84,-1.932 0,-0.785 -0.279,-1.449 -0.84,-1.996 L 67.09,58.355 c 3.836,-5.572 5.754,-11.809 5.754,-18.712 0,-4.423 -0.846,-8.644 -2.541,-12.662 C 68.666,22.948 66.258,19.365 63.08,16.229 59.93,13.122 56.359,10.729 52.37,9.048 48.338,7.383 44.097,6.55 39.645,6.55 c -4.41,0 -8.651,0.833 -12.726,2.499 -3.99,1.681 -7.552,4.074 -10.689,7.182 -3.135,3.108 -5.537,6.692 -7.203,10.751 C 7.376,31 6.55,35.221 6.55,39.645 c 0,4.452 0.826,8.694 2.478,12.726 1.666,4.06 4.067,7.637 7.203,10.73 V 63.08 c 3.137,3.178 6.699,5.586 10.688,7.223 4.06,1.693 8.302,2.541 12.726,2.541 6.832,0 13.062,-1.924 18.689,-5.774 L 83.91,92.646 c 0.52,0.561 1.162,0.84 1.934,0.84 0.84,0 1.498,-0.287 1.973,-0.861 l 4.829,-4.787 M 58.523,20.788 c 0.006,0.008 0.013,0.015 0.021,0.021 2.512,2.54 4.443,5.411 5.796,8.608 l 0.021,0.021 c 1.316,3.25 1.973,6.652 1.973,10.206 0,3.594 -0.658,7.023 -1.973,10.29 -0.004,0.009 -0.012,0.015 -0.021,0.021 -1.355,3.219 -3.294,6.075 -5.816,8.569 v 0.021 c -2.545,2.512 -5.429,4.444 -8.653,5.796 l -0.021,0.021 c -3.236,1.314 -6.638,1.973 -10.206,1.973 -3.554,0 -6.956,-0.656 -10.206,-1.973 L 29.417,64.341 C 26.219,62.988 23.349,61.056 20.809,58.545 L 20.788,58.524 C 18.277,56.025 16.345,53.133 14.992,49.85 v 0.021 c -1.342,-3.246 -2.014,-6.654 -2.016,-10.227 10e-4,-3.557 0.673,-6.959 2.016,-10.205 1.352,-3.21 3.283,-6.086 5.796,-8.63 0.006,-0.006 0.015,-0.013 0.021,-0.021 2.543,-2.484 5.42,-4.396 8.63,-5.733 3.246,-1.343 6.648,-2.015 10.206,-2.016 3.572,0.002 6.981,0.674 10.227,2.016 H 49.85 c 3.235,1.338 6.126,3.248 8.673,5.733 z"
             id="path6" />
        </g>
      </g>
    </g>
    <g
       id="g20">
      <g
         id="g18">
        <g
           id="g16">
          <path
             d="m 42.584,24.693 c -0.014,-0.015 -0.028,-0.028 -0.042,-0.042 -1.162,-1.148 -2.562,-1.722 -4.2,-1.722 -1.624,0 -3.017,0.582 -4.179,1.744 h -0.021 c -1.148,1.162 -1.723,2.562 -1.723,4.2 0,0.793 0.133,1.528 0.399,2.205 l -6.047,6.068 c -0.919,-0.489 -1.94,-0.735 -3.066,-0.735 -1.805,0 -3.345,0.644 -4.62,1.932 -1.288,1.274 -1.931,2.82 -1.931,4.641 0,1.82 0.643,3.375 1.931,4.663 1.274,1.26 2.814,1.889 4.62,1.889 1.834,0 3.388,-0.63 4.663,-1.889 h 0.021 c 1.274,-1.288 1.911,-2.843 1.911,-4.663 0,-1.122 -0.245,-2.144 -0.735,-3.066 l 5.879,-5.858 c 0.866,0.49 1.832,0.735 2.898,0.735 1.159,0 2.202,-0.288 3.129,-0.862 l 5.986,5.985 c -0.504,0.926 -0.756,1.948 -0.756,3.066 0,1.807 0.657,3.36 1.973,4.662 1.274,1.261 2.821,1.89 4.641,1.89 1.82,0 3.366,-0.63 4.641,-1.89 1.274,-1.288 1.911,-2.842 1.911,-4.662 0,-1.11 -0.237,-2.117 -0.715,-3.024 l 3.97,-3.969 c -0.229,-1.526 -0.606,-3.017 -1.133,-4.473 l -5.629,5.627 c -0.913,-0.49 -1.928,-0.735 -3.045,-0.735 -1.12,0 -2.143,0.246 -3.065,0.735 l -6.299,-6.32 c 0.21,-0.604 0.315,-1.256 0.315,-1.953 -10e-4,-1.624 -0.561,-3.017 -1.682,-4.179 m 13.986,18.29 c 0,0.91 -0.315,1.687 -0.945,2.331 -0.63,0.616 -1.4,0.924 -2.311,0.924 -0.911,0 -1.688,-0.315 -2.33,-0.945 -0.658,-0.644 -0.987,-1.414 -0.987,-2.31 0,-0.91 0.329,-1.687 0.987,-2.331 0.658,-0.643 1.435,-0.966 2.33,-0.966 0.883,0 1.652,0.322 2.311,0.966 0.63,0.644 0.945,1.422 0.945,2.331 M 36.495,26.982 c 0.504,-0.518 1.12,-0.778 1.849,-0.778 0.714,0 1.336,0.259 1.868,0.778 l 0.021,0.021 c 0.504,0.518 0.756,1.141 0.756,1.869 0,0.728 -0.246,1.351 -0.735,1.869 -0.015,0 -0.028,0.007 -0.042,0.021 -0.518,0.49 -1.141,0.736 -1.869,0.736 -0.728,0 -1.344,-0.246 -1.849,-0.736 l -0.021,-0.021 c -0.504,-0.518 -0.756,-1.141 -0.756,-1.869 0,-0.728 0.259,-1.351 0.777,-1.869 l 10e-4,-0.021 M 21.417,45.314 21.396,45.293 c -0.63,-0.63 -0.945,-1.4 -0.945,-2.31 0,-0.924 0.321,-1.7 0.966,-2.331 0.63,-0.643 1.393,-0.966 2.289,-0.966 0.91,0 1.694,0.322 2.352,0.966 0.63,0.644 0.945,1.421 0.945,2.331 0,0.91 -0.315,1.681 -0.945,2.31 v 0.021 c -0.644,0.616 -1.428,0.924 -2.352,0.924 -0.895,0 -1.659,-0.308 -2.289,-0.924 z"
             id="path14" />
        </g>
      </g>
    </g>
  </g>
  <g
     id="SvgjsG1283"
     featureKey="ewgXDI-0"
     transform="matrix(32.128702,0,0,32.128702,-22.490091,1678.3925)"
     fill="#ffffff">
    <path
       d="m 6.14,9.42 c 1.9,0 3.5,0.8 4.48,2.48 l -2.4,1.14 C 7.7,12.6 7.28,12.2 6.18,12.2 c -1.2,0 -2.42,0.92 -2.42,2.62 0,1.68 1.22,2.56 2.42,2.56 1.1,0 1.52,-0.36 2.04,-0.8 l 2.44,1.14 C 9.64,19.4 8.08,20.16 6.14,20.16 3.82,20.16 0.7,18.5 0.7,14.82 0.7,11.2 3.82,9.42 6.14,9.42 Z m 12.52,0.02 c 1.94,0 3.92,1.3 3.92,4.6 V 20 h -3.16 v -5.74 c 0,-1.58 -0.54,-2.08 -1.54,-2.08 -1.42,0 -2.24,1.38 -2.44,1.98 V 20 H 12.28 V 5.86 h 3.16 v 5.54 c 0.2,-0.5 1.26,-1.96 3.22,-1.96 z M 31.98,9.6 h 3.16 V 20 h -3.16 v -1.04 c -0.14,0.36 -1.08,1.24 -2.68,1.24 -2.38,0 -5.12,-1.7 -5.12,-5.42 0,-3.58 2.74,-5.36 5.12,-5.36 1.6,0 2.54,0.92 2.68,1.14 z m -2.22,7.82 c 1.3,0 2.36,-0.9 2.36,-2.64 0,-1.68 -1.06,-2.58 -2.36,-2.58 -1.36,0 -2.52,0.92 -2.52,2.58 0,1.72 1.16,2.64 2.52,2.64 z m 12.48,-0.06 c 0.56,0 0.96,-0.08 1.4,-0.2 v 2.62 c -0.44,0.2 -1.16,0.34 -2.22,0.34 -1.74,0 -3.2,-0.58 -3.2,-3.78 V 12.2 H 36.76 V 9.6 h 1.46 V 7.16 h 3.16 V 9.6 h 2.22 v 2.6 h -2.22 v 4.14 c 0,0.46 0.12,1.02 0.86,1.02 z m 8.2,-4.48 c -0.28,-0.72 -0.7,-0.96 -1.16,-0.96 -0.42,0 -0.84,0.24 -0.84,0.64 0,0.38 0.24,0.6 0.7,0.76 l 1.32,0.46 c 1.48,0.54 2.98,1.08 2.98,3.16 0,2.1 -2.1,3.3 -4.26,3.3 -1.94,0 -3.76,-1.14 -4.2,-2.96 l 2.48,-0.78 c 0.26,0.58 0.72,1.24 1.72,1.24 0.68,0 1.12,-0.44 1.12,-0.84 0,-0.2 -0.16,-0.46 -0.66,-0.66 L 48.42,15.8 c -2.08,-0.76 -3.06,-1.82 -3.06,-3.3 0,-1.94 1.8,-3.08 3.78,-3.08 2.02,0 3.36,1.1 3.96,2.76 z m 9.68,4.48 c 0.56,0 0.96,-0.08 1.4,-0.2 v 2.62 c -0.44,0.2 -1.16,0.34 -2.22,0.34 -1.74,0 -3.2,-0.58 -3.2,-3.78 V 12.2 H 54.64 V 9.6 H 56.1 V 7.16 h 3.16 V 9.6 h 2.22 v 2.6 h -2.22 v 4.14 c 0,0.46 0.12,1.02 0.86,1.02 z M 70.68,9.6 h 3.16 V 20 H 70.68 V 18.96 C 70.54,19.32 69.6,20.2 68,20.2 c -2.38,0 -5.12,-1.7 -5.12,-5.42 0,-3.58 2.74,-5.36 5.12,-5.36 1.6,0 2.54,0.92 2.68,1.14 z m -2.22,7.82 c 1.3,0 2.36,-0.9 2.36,-2.64 0,-1.68 -1.06,-2.58 -2.36,-2.58 -1.36,0 -2.52,0.92 -2.52,2.58 0,1.72 1.16,2.64 2.52,2.64 z m 12.48,-0.06 c 0.56,0 0.96,-0.08 1.4,-0.2 v 2.62 c -0.44,0.2 -1.16,0.34 -2.22,0.34 -1.74,0 -3.2,-0.58 -3.2,-3.78 V 12.2 H 75.46 V 9.6 h 1.46 V 7.16 h 3.16 V 9.6 h 2.22 v 2.6 h -2.22 v 4.14 c 0,0.46 0.12,1.02 0.86,1.02 z"
       id="path23" />
  </g>
</svg>
