<?xml version="1.0" standalone="no"?>
<!DOCTYPE svg PUBLIC "-//W3C//DTD SVG 20010904//EN"
 "http://www.w3.org/TR/2001/REC-SVG-20010904/DTD/svg10.dtd">
<svg version="1.0" xmlns="http://www.w3.org/2000/svg"
 width="700.000000pt" height="700.000000pt" viewBox="0 0 700.000000 700.000000"
 preserveAspectRatio="xMidYMid meet">
<metadata>
Created by potrace 1.14, written by Peter Selinger 2001-2017
</metadata>
<g transform="translate(0.000000,700.000000) scale(0.100000,-0.100000)"
fill="#000000" stroke="none">
<path d="M2468 6995 c-1 -2 -34 -6 -73 -9 -38 -3 -79 -8 -90 -10 -11 -2 -41
-6 -66 -10 -189 -28 -414 -91 -606 -172 -475 -199 -901 -551 -1194 -989 -75
-112 -202 -350 -234 -440 -10 -27 -22 -54 -25 -60 -6 -9 -49 -130 -56 -160 -2
-5 -14 -50 -29 -100 -25 -90 -50 -200 -61 -272 -3 -21 -7 -49 -9 -62 -27 -161
-27 -558 -1 -751 58 -424 227 -844 479 -1194 28 -39 54 -73 57 -76 3 -3 29
-34 59 -70 141 -169 398 -397 592 -526 95 -63 341 -195 414 -222 17 -6 55 -21
85 -33 98 -37 231 -79 334 -103 96 -23 117 -27 211 -41 22 -3 46 -8 53 -10 27
-9 222 -20 367 -20 166 1 283 9 408 29 20 3 54 9 75 12 51 8 254 59 327 82
151 49 331 128 463 204 46 26 87 48 90 49 4 0 34 20 67 44 l60 43 1055 -1053
c1045 -1043 1055 -1053 1107 -1065 57 -13 119 -8 158 13 14 7 129 116 255 242
257 256 268 272 256 371 -4 31 -16 71 -28 88 -11 17 -487 497 -1056 1068
l-1035 1036 19 30 c78 126 154 261 194 346 105 224 186 493 216 711 3 22 7 51
10 65 18 111 24 443 11 600 -18 213 -92 532 -162 695 -7 17 -30 71 -50 120
-61 148 -127 269 -226 418 -158 238 -331 419 -634 665 -69 56 -284 185 -420
252 -251 124 -533 210 -810 246 -22 3 -51 8 -65 11 -28 5 -486 13 -492 8z
m428 -529 c12 -2 45 -7 75 -11 30 -3 61 -8 69 -10 8 -2 31 -7 50 -10 227 -38
530 -163 754 -309 163 -106 362 -282 471 -416 20 -25 46 -56 57 -69 70 -83
214 -328 281 -481 74 -167 135 -425 153 -640 5 -69 5 -322 -1 -375 -2 -22 -7
-60 -9 -85 -10 -86 -17 -126 -47 -250 -32 -137 -54 -203 -106 -325 -165 -388
-476 -748 -841 -975 -207 -128 -418 -216 -634 -266 -10 -2 -28 -6 -40 -9 -13
-3 -38 -8 -57 -11 -18 -3 -43 -8 -55 -10 -11 -2 -43 -7 -71 -10 -27 -3 -66 -7
-85 -10 -43 -5 -330 -5 -385 0 -413 39 -777 179 -1100 423 -38 29 -120 98
-170 142 -37 33 -170 175 -212 226 -81 99 -196 282 -258 410 -70 143 -158 390
-156 440 0 2 -5 19 -10 37 -5 18 -12 51 -15 72 -3 22 -7 43 -9 46 -2 3 -7 37
-11 75 -3 39 -8 84 -10 100 -11 99 -2 372 16 480 5 33 12 71 14 85 25 155 99
377 183 547 54 110 186 320 243 387 149 175 196 222 325 328 326 267 750 441
1155 474 41 4 76 8 78 9 5 4 336 -4 358 -9z"/>
<path d="M2460 5672 c-40 -6 -120 -41 -164 -71 -171 -119 -248 -325 -196 -528
l13 -51 -241 -242 -242 -243 -38 16 c-133 59 -329 53 -450 -14 -261 -145 -362
-453 -232 -707 101 -196 271 -296 494 -288 157 5 274 59 376 174 96 108 131
210 126 367 -4 105 -6 117 -49 225 -1 3 104 110 233 238 156 156 239 231 250
228 8 -3 40 -14 71 -25 104 -37 249 -29 353 20 l48 22 239 -239 c156 -155 238
-244 235 -254 -3 -8 -15 -42 -27 -75 -26 -72 -31 -213 -10 -290 46 -165 173
-303 336 -365 76 -29 233 -37 314 -15 184 48 340 208 381 390 22 95 13 220
-22 313 l-20 54 156 157 c119 119 156 162 156 181 -1 33 -31 166 -61 263 l-24
77 -225 -225 -225 -225 -75 26 c-101 35 -245 37 -335 5 -33 -12 -67 -24 -75
-27 -10 -3 -104 84 -268 249 -251 252 -253 253 -242 283 17 43 19 171 3 238
-40 175 -192 324 -363 356 -51 10 -143 11 -200 2z m201 -283 c24 -13 57 -44
74 -67 27 -40 30 -51 30 -120 0 -69 -3 -81 -30 -120 -78 -111 -243 -121 -331
-20 -43 49 -58 98 -51 166 15 148 178 233 308 161z m-1191 -1074 c138 -49 210
-203 159 -341 -80 -214 -377 -226 -487 -20 -25 48 -23 180 5 231 27 51 87 106
138 127 51 21 130 22 185 3z m2408 -11 c100 -50 155 -146 146 -259 -19 -259
-359 -329 -494 -102 -27 45 -37 136 -21 193 42 156 226 240 369 168z"/>
</g>
</svg>
