<svg height='300px' width='300px'  fill="#000000" xmlns="http://www.w3.org/2000/svg" xmlns:xlink="http://www.w3.org/1999/xlink" version="1.1" x="0px" y="0px" viewBox="0 0 100 100" enable-background="new 0 0 100 100" xml:space="preserve"><g><path d="M95.4,45C92.8,21.9,73.3,4.5,50,4.5C26.8,4.5,7.3,21.9,4.7,44.9l-1.8-0.2c2.8-23.9,23-42,47.1-42   c24.2,0,44.5,18.1,47.1,42.1L95.4,45z"></path></g><g><path d="M15.3,39.1l-1.2-0.5c0.3-0.9,8.4-21.5,15.5-22.7c7.1-1.1,19.6,14.6,20.1,15.3l-1,0.8c-3.5-4.4-13.6-15.6-18.9-14.8   C24.5,18.1,17.5,33.3,15.3,39.1z"></path></g><g><path d="M74.9,35.5c0,0-1.2-2.2-2.8-4.5c-2.7-3.9-4.1-4.8-4.6-4.9c-1.7-0.5-6.6,3.5-9.4,6.6l-0.9-0.9c0.1-0.1,1.9-2,4-3.8   c3.1-2.6,5.3-3.6,6.7-3.1c3,0.9,7.7,9.1,8.2,10L74.9,35.5z"></path></g><g><path d="M61.7,27.5c-2.4-4-7.1-10.3-9.2-10.3c-2.1,0-6.2,5.1-8.2,8.3l-1.1-0.7c0.6-0.9,5.8-8.9,9.3-8.9c3.5,0,9.6,9.8,10.3,10.9   L61.7,27.5z"></path></g><g><path stroke="#000000" stroke-width="1.8031" stroke-miterlimit="10" d="M96.3,44.9" fill="#000000"></path></g><g><path stroke="#000000" stroke-width="1.8031" stroke-miterlimit="10" d="M3.8,44.8" fill="#000000"></path></g><g><g><path d="M56.8,35.1c0.7,5.3-6.1,5.1-6.1,8.3c0,4.1,9.9,4,9.9,9.9c0,8.1-13.3,9.4-13.3,15.7c0,9.3,30.6,11.8,37.5,12.2    c7.4-8.2,11.8-19.1,11.8-31c0-1.8-0.1-3.5-0.3-5.2l-0.1-1.1c0,0-11.9-11.1-41.6-12.2C55.4,32.6,56.7,34,56.8,35.1z"></path><path d="M85.1,82.1l-0.4,0c-3.6-0.2-13-1-21.5-2.8C52,76.8,46.3,73.3,46.3,68.9c0-3.4,3.3-5.5,6.5-7.5c3.4-2.1,6.9-4.4,6.9-8.2    c0-2.7-2.5-3.9-5.1-5.2c-2.3-1.1-4.8-2.3-4.8-4.7c0-1.8,1.6-2.8,3-3.7c2.1-1.3,3.4-2.2,3.1-4.5c0-0.2-0.3-1.1-2-2.9l-1.6-1.6    l2.3,0.1c29.7,1,41.7,12,42.2,12.4l0.2,0.2l0.2,1.4c0.2,1.8,0.3,3.6,0.3,5.3c0,11.7-4.3,22.9-12.1,31.6L85.1,82.1z M56.6,32.7    c0.7,0.9,1,1.6,1.1,2.3c0.5,3.6-2.1,5.2-3.9,6.3c-1.3,0.8-2.2,1.3-2.2,2.1c0,1.2,1.4,2,3.7,3.1c2.7,1.3,6.1,3,6.1,6.8    c0,4.8-4.1,7.4-7.7,9.7c-3,1.9-5.6,3.6-5.6,6c0,3.4,5.3,6.4,15.4,8.6c8.1,1.7,16.9,2.5,20.8,2.7c7.3-8.3,11.3-19,11.3-30.1    c0-1.7-0.1-3.4-0.3-5.1l-0.1-0.7C93.5,42.8,81.9,34,56.6,32.7z"></path></g><g><path d="M29.9,70.9c2-14.3,18.5-11,18.5-16.3c0-6.3-8.7-6.3-8.7-10.4s11.1-6.5,11.1-8.9c0-1.5-1.1-2.8-1.9-3.7    c-30.1,0.3-45,13.2-45,13.2c-0.2,1.8-0.3,3.6-0.3,5.4c0,25.4,20.4,46.1,45.6,46.5C41.3,94.3,27.7,86.7,29.9,70.9z"></path><path d="M55.7,97.7l-6.6-0.1c-12.5-0.2-24.2-5.3-32.9-14.2C7.4,74.5,2.6,62.7,2.6,50.1c0-1.8,0.1-3.7,0.3-5.5l0-0.4l0.3-0.2    c0.2-0.1,3.9-3.3,11.5-6.6c6.9-3,18.5-6.6,34.1-6.8l0.4,0l0.3,0.3c1,1,2.2,2.6,2.2,4.3c0,1.6-2.1,2.7-5,4.1    c-2.6,1.3-6.1,3.1-6.1,4.8c0,1.2,1.2,2,3.2,3.2c2.5,1.4,5.5,3.2,5.5,7.2c0,2.7-2.8,3.6-6.1,4.6c-5,1.6-11.2,3.5-12.4,11.8    c-0.9,6.7,1,12.4,5.6,17.2c4.7,4.7,10.6,6.9,13,7.6L55.7,97.7z M4.6,45.2c-0.2,1.6-0.3,3.3-0.3,4.9c0,12,4.6,23.4,13.1,32    c7,7.2,16,11.7,25.8,13.2c-2.6-1.3-5.5-3.2-8.1-5.8C30,84.3,28,78,29,70.8c1.3-9.4,8.7-11.7,13.6-13.3c3-0.9,4.9-1.6,4.9-2.9    c0-3-2.2-4.3-4.6-5.6c-2-1.2-4.1-2.4-4.1-4.7c0-2.9,3.8-4.8,7.1-6.4c1.4-0.7,3.8-1.9,4-2.5c0-0.8-0.5-1.8-1.4-2.8    C21.4,32.9,6.7,43.6,4.6,45.2z"></path></g></g></svg>